<?xml version="1.0" standalone="no"?>
<!DOCTYPE svg PUBLIC "-//W3C//DTD SVG 20010904//EN"
 "http://www.w3.org/TR/2001/REC-SVG-20010904/DTD/svg10.dtd">
<svg version="1.0" xmlns="http://www.w3.org/2000/svg"
 width="520.000000pt" height="325.000000pt" viewBox="0 0 520.000000 325.000000"
 preserveAspectRatio="xMidYMid meet">

<g transform="translate(0.000000,325.000000) scale(0.100000,-0.100000)"
fill="#000000" stroke="none">
<path d="M3165 2878 c-27 -76 -22 -144 8 -104 12 17 14 16 25 -8 6 -14 16 -26
21 -26 14 0 31 35 30 62 -1 25 -4 19 -13 -24 -9 -39 -21 -35 -36 12 -15 45
-30 53 -30 16 0 -14 -4 -27 -9 -30 -5 -4 -5 12 0 37 16 74 20 75 44 22 l22
-49 8 39 c6 34 9 37 15 20 8 -19 9 -19 9 3 1 13 -5 22 -14 22 -8 0 -15 -7 -15
-15 0 -23 -16 -18 -28 10 -12 27 -30 33 -37 13z"/>
<path d="M3047 2612 c-26 -26 -47 -53 -47 -60 0 -14 26 -16 35 -2 13 22 23 8
18 -25 -9 -57 19 -57 78 1 48 47 61 74 37 74 -6 0 -20 -8 -30 -17 -18 -16 -19
-15 -16 27 4 61 -16 62 -75 2z m63 -17 c-16 -67 -12 -71 25 -35 19 19 35 29
35 24 0 -15 -84 -94 -99 -94 -9 0 -11 7 -7 23 3 12 9 40 12 62 l6 40 -27 -32
c-14 -18 -32 -33 -38 -33 -6 0 11 22 38 50 27 27 52 47 57 42 4 -4 3 -25 -2
-47z"/>
<path d="M2803 2424 c-7 -18 12 -34 42 -34 16 0 13 -4 -13 -20 -74 -45 -46
-80 63 -80 39 0 76 5 82 11 20 20 3 39 -36 39 l-36 1 37 22 c79 46 58 77 -54
77 -63 0 -80 -3 -85 -16z m167 -14 c0 -6 -26 -27 -57 -48 l-58 -37 60 -6 c60
-6 59 -6 -22 -7 -45 -1 -84 2 -88 8 -3 5 23 27 57 49 l63 40 -60 4 c-53 3 -50
3 23 5 50 1 82 -2 82 -8z"/>
<path d="M1466 1979 c-119 -225 -214 -414 -211 -419 4 -6 119 -10 290 -10 156
0 290 -3 299 -6 13 -5 16 -25 16 -120 l0 -114 103 0 c75 0 108 -4 123 -15 28
-21 56 -18 98 10 20 13 36 21 36 17 0 -4 -38 -85 -85 -179 -73 -146 -90 -174
-121 -192 l-36 -22 -44 26 c-40 24 -44 29 -44 65 0 45 3 43 -120 96 -81 35
-95 44 -92 63 2 14 -4 24 -22 33 -24 10 -26 17 -26 69 0 53 3 60 30 81 36 26
38 46 8 53 -13 3 -135 23 -273 44 l-250 39 -250 -105 c-137 -59 -258 -113
-268 -122 -16 -14 -18 -29 -15 -128 4 -141 6 -144 142 -174 l98 -21 196 -140
c108 -76 206 -141 217 -144 11 -2 67 6 125 19 l105 24 48 -35 c50 -36 215
-106 280 -117 22 -4 37 -13 37 -21 0 -26 79 -101 140 -133 122 -65 236 -47
279 43 12 23 21 47 21 53 0 6 21 10 52 10 46 -1 54 2 80 34 85 100 225 365
276 523 l29 88 25 -43 c63 -109 117 -244 126 -320 11 -84 27 -122 76 -177 26
-29 34 -48 38 -90 6 -62 30 -99 79 -125 48 -26 138 -18 208 17 63 33 141 102
141 126 0 13 21 24 88 45 196 60 300 134 401 283 57 85 121 221 128 273 10 73
-52 149 -121 149 -54 0 -178 -63 -353 -180 -98 -65 -181 -116 -185 -112 -9 10
-137 286 -134 290 2 1 17 -5 34 -15 24 -13 37 -15 58 -8 52 18 95 110 80 169
-3 14 -22 45 -42 71 -19 26 -34 48 -32 48 2 1 65 1 141 -1 l137 -3 0 -115 0
-114 155 0 155 0 0 355 0 355 -155 0 -154 0 -3 -82 -3 -83 -47 -3 c-31 -2 -48
1 -48 8 0 7 43 93 96 192 80 149 94 182 83 193 -27 24 -262 140 -266 130 -16
-44 -312 -590 -321 -593 -6 -2 -20 14 -31 35 -28 56 -112 130 -189 166 -63 30
-73 32 -183 32 -113 0 -116 -1 -191 -38 -55 -27 -90 -53 -125 -92 -26 -31 -90
-99 -140 -153 l-93 -97 0 188 0 187 -155 0 -155 0 0 -80 0 -80 -50 0 c-27 0
-50 2 -50 5 0 3 43 86 96 185 52 99 94 185 92 191 -2 5 -62 41 -134 79 l-132
69 -216 -410z m452 263 c9 -6 -14 -58 -92 -205 l-104 -197 79 0 79 0 0 80 0
80 135 0 135 0 0 -189 0 -189 -46 -54 c-26 -29 -55 -72 -66 -96 -19 -42 -18
-64 7 -124 6 -16 -1 -18 -79 -18 l-86 0 0 114 0 113 -67 6 c-38 4 -173 7 -300
7 -128 0 -233 4 -233 8 0 7 246 476 367 700 l44 82 107 -55 c59 -30 113 -59
120 -63z m1605 92 c29 -15 80 -42 113 -60 l61 -34 -103 -197 c-57 -109 -104
-199 -104 -201 0 -1 35 -2 78 0 l77 3 3 83 3 82 135 0 134 0 -2 -337 -3 -338
-132 -3 -133 -3 0 121 0 120 -158 0 -159 0 -92 100 c-51 55 -91 106 -89 113 7
28 302 577 310 577 5 0 32 -12 61 -26z m-621 -362 c60 -29 168 -120 168 -142
0 -4 -17 -4 -37 0 -24 6 -63 4 -112 -5 -60 -12 -81 -21 -108 -47 -34 -33 -44
-68 -19 -68 8 0 16 -10 18 -22 2 -15 11 -24 26 -26 12 -2 22 -8 22 -14 0 -7
-19 -8 -57 -2 -32 4 -69 8 -83 7 -50 0 -225 -25 -242 -34 -10 -5 -24 -9 -31
-9 -8 0 -35 -11 -60 -24 -26 -13 -47 -20 -47 -16 0 4 13 37 30 73 l30 66 76
-24 c41 -13 78 -26 81 -29 3 -3 18 1 32 8 14 8 34 17 44 20 9 3 17 13 17 22 0
9 8 22 17 29 16 12 16 14 0 39 -10 14 -28 33 -41 41 -24 16 -160 46 -180 40
-6 -2 -24 -6 -40 -10 l-28 -6 22 28 c36 47 119 102 183 123 48 16 83 19 157
17 83 -3 103 -7 162 -35z m-351 -152 c37 -7 64 -19 79 -35 32 -34 21 -39 -31
-15 -24 11 -50 20 -56 20 -22 0 -14 -18 10 -24 28 -7 77 -43 77 -57 0 -15 -22
-10 -74 16 -27 14 -55 25 -63 25 -27 0 -11 -16 39 -38 71 -31 53 -39 -29 -13
-122 38 -106 50 -197 -151 -96 -209 -134 -258 -191 -244 -32 8 -66 67 -67 116
-1 52 20 81 164 238 121 131 142 148 197 168 37 14 43 13 142 -6z m527 -27
c37 -18 223 -209 289 -297 46 -63 53 -94 29 -149 -20 -48 -50 -71 -83 -63 -49
13 -86 67 -162 242 -41 93 -78 173 -82 177 -4 5 -45 -3 -92 -17 -47 -14 -88
-26 -92 -26 -18 0 20 30 51 40 19 6 34 16 34 21 0 15 -25 10 -74 -16 -55 -29
-66 -31 -66 -9 0 9 21 24 50 37 27 12 50 25 50 30 0 12 -19 8 -71 -14 -27 -12
-52 -20 -54 -17 -3 2 9 17 25 33 21 20 48 32 92 41 68 13 105 10 156 -13z m9
-190 c-5 -5 -137 26 -156 37 -11 6 2 13 44 25 33 9 65 18 70 19 10 3 49 -73
42 -81z m-312 26 c52 -13 77 -36 54 -50 -19 -12 -200 -11 -219 1 -13 8 -13 11
0 24 15 15 70 33 103 35 10 1 38 -4 62 -10z m-273 -59 c-2 -22 -8 -43 -13 -46
-10 -6 -12 46 -3 70 11 29 20 16 16 -24z m452 24 c9 -25 7 -64 -4 -64 -5 0
-10 8 -10 18 0 9 -3 27 -6 40 -7 25 11 31 20 6z m-264 -154 l0 -100 29 0 c49
0 71 39 71 126 l0 74 54 0 c41 0 57 -4 67 -19 18 -24 79 -37 79 -16 0 8 6 15
13 15 27 0 121 -30 133 -42 7 -7 45 -85 84 -173 40 -88 88 -190 106 -227 40
-79 41 -88 14 -88 -49 0 -226 -115 -295 -192 -24 -27 -53 -69 -65 -93 -12 -25
-26 -43 -31 -40 -14 9 -39 105 -39 150 0 27 -13 68 -40 124 -22 45 -40 88 -40
95 0 7 -20 44 -45 82 -36 56 -45 78 -45 116 0 48 -13 71 -24 42 -3 -9 -6 -40
-6 -71 0 -114 -109 -369 -244 -573 -55 -83 -71 -100 -92 -100 l-25 0 20 26
c24 31 27 83 7 122 -18 34 -56 70 -175 166 -71 58 -101 76 -125 76 -43 0 -66
15 -37 25 26 8 71 89 178 319 46 99 93 189 105 198 28 25 120 51 128 37 10
-15 80 0 80 16 0 14 31 21 113 23 l47 2 0 -100z m70 27 c0 -68 -10 -97 -32
-97 -4 0 -8 38 -8 85 0 78 2 85 20 85 18 0 20 -7 20 -73z m-1340 -33 c129 -20
237 -38 239 -40 6 -6 8 -4 -106 -78 -90 -58 -105 -65 -128 -56 -55 21 -95 13
-136 -29 -29 -28 -39 -47 -39 -70 0 -18 -5 -31 -12 -31 -7 0 -134 25 -282 55
-258 53 -270 55 -288 38 -18 -16 -19 -26 -13 -93 4 -41 13 -81 20 -89 13 -13
496 -121 545 -121 15 0 39 10 54 21 18 14 31 18 37 12 12 -12 -61 -63 -89 -63
-10 0 -140 27 -288 60 -207 46 -273 64 -285 80 -22 26 -20 219 2 233 51 31
498 215 514 212 11 -3 126 -21 255 -41z m183 -234 c-11 -12 -20 -11 -69 14
l-57 27 64 43 64 43 5 -56 c4 -37 1 -61 -7 -71z m2373 51 c45 -27 61 -72 45
-130 -28 -103 -115 -251 -209 -352 -64 -69 -160 -120 -309 -166 -80 -24 -93
-31 -93 -49 0 -27 -74 -94 -137 -125 -129 -62 -253 -11 -253 104 0 81 39 119
213 202 102 49 122 63 182 127 37 40 81 97 98 127 49 87 135 159 267 226 115
58 149 65 196 36z m-2471 -51 c145 -71 207 -122 277 -227 96 -143 154 -195
287 -259 136 -66 186 -102 201 -150 13 -40 6 -95 -17 -130 -21 -33 -93 -58
-143 -50 -86 14 -213 99 -226 152 -5 19 -20 28 -93 49 -153 47 -241 95 -313
175 -107 117 -207 302 -208 384 0 30 7 45 34 72 47 47 79 45 201 -16z m-329
-80 l52 -11 -12 -39 c-6 -21 -14 -41 -17 -45 -4 -3 -1 -22 6 -43 8 -20 10 -38
5 -40 -8 -3 -520 104 -525 110 -1 2 -5 27 -7 56 -3 34 -1 52 6 52 7 0 8 3 1 8
-12 8 -13 22 -3 38 7 10 110 -8 494 -86z m479 71 c6 -11 -29 -33 -39 -24 -7 7
12 33 25 33 4 0 10 -4 14 -9z m121 -100 c79 -34 89 -41 92 -66 4 -28 3 -28
-20 -13 -13 8 -56 36 -95 62 -64 41 -82 56 -70 56 2 0 44 -17 93 -39z m-500
-56 l22 -54 -24 -16 c-32 -21 -44 -19 -46 8 -3 51 8 117 20 117 4 0 17 -25 28
-55z m-237 -167 c50 -35 122 -85 161 -112 l71 -50 88 17 c100 19 111 20 111 9
0 -5 -43 -18 -96 -30 -75 -17 -101 -19 -117 -11 -21 11 -311 213 -331 231 -6
5 -3 8 6 8 9 0 57 -28 107 -62z m2185 19 c-11 -5 -58 -49 -106 -97 -70 -70
-88 -84 -88 -66 0 38 198 212 209 183 2 -5 -5 -14 -15 -20z m-1988 -17 c24 0
33 -5 37 -21 6 -24 2 -97 -6 -105 -5 -5 -237 152 -237 161 0 2 39 -6 87 -16
48 -10 101 -19 119 -19z m118 15 c6 -11 25 -38 42 -60 49 -64 50 -62 -13 -75
-32 -6 -66 -14 -76 -17 -16 -4 -17 0 -11 46 3 27 2 63 -4 79 -7 21 -7 33 1 41
17 17 48 9 61 -14z m787 -23 c24 -20 65 -54 90 -74 40 -32 45 -41 41 -67 -2
-17 -6 -31 -7 -31 -2 0 -36 34 -76 76 -41 41 -88 84 -106 95 -18 12 -31 25
-27 30 11 18 42 8 85 -29z"/>
<path d="M2542 2239 c-29 -33 -52 -65 -52 -70 0 -19 31 -21 51 -3 20 18 20 18
18 -22 -5 -85 21 -84 95 2 60 71 65 81 39 91 -11 4 -24 -3 -40 -21 l-24 -28 3
53 c3 48 1 54 -18 57 -14 2 -35 -15 -72 -59z m75 -21 l-7 -73 36 38 c54 58 53
36 -2 -27 -62 -73 -78 -73 -69 -3 3 28 9 61 11 72 3 13 -9 4 -35 -25 -22 -25
-41 -40 -41 -34 0 16 94 123 109 124 2 0 1 -33 -2 -72z"/>
<path d="M4296 1521 c-10 -11 -15 -25 -11 -32 6 -8 13 -3 22 15 18 34 12 43
-11 17z"/>
<path d="M4290 1461 c0 -5 7 -14 15 -21 13 -11 13 -15 0 -33 -22 -32 -19 -46
20 -83 l36 -33 -58 -38 c-81 -52 -113 -83 -113 -110 0 -21 -4 -23 -55 -23
l-55 0 0 -164 c0 -150 2 -165 21 -190 20 -26 22 -26 150 -26 116 0 131 2 149
20 11 11 20 33 20 49 0 25 4 29 40 35 26 4 51 18 74 40 60 61 56 146 -8 206
-26 23 -36 25 -159 30 l-131 5 29 23 c17 13 49 36 72 52 27 19 45 40 48 57 3
16 10 42 16 59 13 42 -1 71 -52 107 -21 16 -39 33 -39 38 0 5 -4 9 -10 9 -5 0
-10 -4 -10 -9z m92 -96 c6 -14 7 -29 1 -40 -9 -15 -13 -14 -41 10 -34 29 -39
44 -20 63 15 15 45 -2 60 -33z m-28 -126 c-10 -12 -38 -32 -62 -46 -23 -14
-50 -36 -61 -49 -22 -28 -34 -21 -20 10 10 22 149 119 158 111 2 -3 -4 -14
-15 -26z m155 -164 c84 -71 49 -194 -59 -211 -34 -6 -38 -10 -43 -41 -10 -60
-17 -63 -150 -63 -164 0 -157 -9 -157 187 l0 153 189 0 c188 0 190 0 220 -25z"/>
<path d="M4410 980 l0 -90 31 0 c39 0 89 48 89 85 0 55 -36 94 -87 95 l-33 0
0 -90z m59 65 c46 -23 54 -66 20 -109 -12 -15 -30 -26 -45 -26 -23 0 -24 3
-24 68 0 61 4 82 17 82 2 0 17 -7 32 -15z"/>
</g>
</svg>
