<svg xmlns="http://www.w3.org/2000/svg" viewBox="0 0 158.92 30.09"><defs><style>.cls-1{fill:#fff;}.cls-2{fill:#e62154;}</style></defs><title>logo_1</title><g id="Calque_2" data-name="Calque 2"><g id="Calque_10" data-name="Calque 10"><path class="cls-1" d="M17.54,19.36a6.91,6.91,0,1,1-6.91-6.91A6.91,6.91,0,0,1,17.54,19.36Z"/><path class="cls-2" d="M31.79,8.59h-.2a10.64,10.64,0,0,0-20.66-.91,10.63,10.63,0,0,1,3.67.75,6.92,6.92,0,0,1,13.34.88,7.31,7.31,0,0,1,.13,1.33,6.8,6.8,0,0,1-1,3.5,6.91,6.91,0,0,1,4.55-1.82h.13a6.91,6.91,0,0,1,.32,13.82L21,25.94a10.68,10.68,0,0,1-3.68,3.93H31.79a10.64,10.64,0,0,0,0-21.28Z"/><path class="cls-2" d="M10.64,30A10.64,10.64,0,1,1,21.28,19.36,10.65,10.65,0,0,1,10.64,30Zm0-17.56a6.92,6.92,0,1,0,6.92,6.92A6.93,6.93,0,0,0,10.64,12.44Z"/><path class="cls-2" d="M12.45,22.45l-.56-3.35A1.65,1.65,0,0,0,12.33,18a1.7,1.7,0,1,0-3.39,0,1.67,1.67,0,0,0,.43,1.13l-.55,3.35Z"/><path class="cls-1" d="M12,21.81v.28H9.27l.53-3a1.55,1.55,0,0,1,.09-2.27,1.51,1.51,0,0,0,.27,2l-.52,3Z"/><path class="cls-1" d="M52.51,13.2a23.44,23.44,0,0,1,3.58-.27c2.41,0,4.13.56,5.27,1.62a6,6,0,0,1,1.84,4.68,6.89,6.89,0,0,1-1.88,5.06c-1.21,1.22-3.22,1.87-5.75,1.87A26.57,26.57,0,0,1,52.51,26Zm1.68,11.52a11.82,11.82,0,0,0,1.71.09c3.59,0,5.54-2,5.54-5.52,0-3.08-1.72-5-5.27-5a10.25,10.25,0,0,0-2,.17Z"/><path class="cls-1" d="M73.87,21.29a4.57,4.57,0,0,1-4.65,5c-2.54,0-4.49-1.85-4.49-4.81,0-3.13,2-5,4.64-5S73.87,18.43,73.87,21.29Zm-7.42.1c0,2.05,1.18,3.6,2.84,3.6s2.84-1.53,2.84-3.64c0-1.58-.79-3.59-2.8-3.59S66.45,19.61,66.45,21.39Z"/><path class="cls-1" d="M76.56,16.7l1.24,4.75c.27,1,.52,2,.7,3h0c.22-.94.53-2,.84-3l1.52-4.77h1.43l1.45,4.67c.35,1.12.62,2.11.83,3.05h.06a27,27,0,0,1,.71-3l1.34-4.69h1.68l-3,9.35H83.85l-1.43-4.47a30.07,30.07,0,0,1-.83-3.07h0a26.71,26.71,0,0,1-.85,3.09l-1.51,4.45H77.65L74.82,16.7Z"/><path class="cls-1" d="M90.12,19.23c0-1,0-1.76-.08-2.53h1.51l.09,1.54h0a3.45,3.45,0,0,1,3.09-1.76c1.3,0,3.31.78,3.31,4v5.59h-1.7V20.66c0-1.51-.56-2.77-2.17-2.77a2.43,2.43,0,0,0-2.28,1.74,2.74,2.74,0,0,0-.11.79v5.63h-1.7Z"/><path class="cls-1" d="M100.85,12.33h1.7V26.05h-1.7Z"/><path class="cls-1" d="M113.87,21.29a4.57,4.57,0,0,1-4.65,5c-2.54,0-4.49-1.85-4.49-4.81,0-3.13,2-5,4.64-5S113.87,18.43,113.87,21.29Zm-7.42.1c0,2.05,1.18,3.6,2.84,3.6s2.84-1.53,2.84-3.64c0-1.58-.79-3.59-2.8-3.59S106.45,19.61,106.45,21.39Z"/><path class="cls-1" d="M121.2,26.05l-.13-1.18H121a3.5,3.5,0,0,1-2.86,1.39,2.66,2.66,0,0,1-2.86-2.69c0-2.26,2-3.49,5.62-3.47v-.2a1.92,1.92,0,0,0-2.12-2.16,4.73,4.73,0,0,0-2.44.69L116,17.31a5.87,5.87,0,0,1,3.08-.83c2.86,0,3.55,1.95,3.55,3.83v3.5a12.74,12.74,0,0,0,.16,2.24ZM121,21.28c-1.86,0-4,.29-4,2.1a1.5,1.5,0,0,0,1.6,1.62,2.32,2.32,0,0,0,2.26-1.56,1.71,1.71,0,0,0,.1-.54Z"/><path class="cls-1" d="M133.42,12.33v11.3c0,.83,0,1.78.08,2.42H132l-.08-1.63h0a3.44,3.44,0,0,1-3.18,1.84c-2.27,0-4-1.91-4-4.75,0-3.11,1.91-5,4.19-5a3.14,3.14,0,0,1,2.82,1.43h0V12.33Zm-1.7,8.17a2.87,2.87,0,0,0-.08-.71,2.5,2.5,0,0,0-2.45-2c-1.76,0-2.8,1.54-2.8,3.61,0,1.89.92,3.46,2.76,3.46a2.56,2.56,0,0,0,2.49-2,2.82,2.82,0,0,0,.08-.73Z"/><path class="cls-1" d="M135.65,25a1.14,1.14,0,0,1,1.15-1.21,1.22,1.22,0,0,1,0,2.43A1.14,1.14,0,0,1,135.65,25Z"/><path class="cls-1" d="M148.11,16.7c0,.67-.08,1.43-.08,2.57v5.42c0,2.15-.42,3.46-1.33,4.28a5,5,0,0,1-3.4,1.12,6,6,0,0,1-3.11-.78l.42-1.29a5.37,5.37,0,0,0,2.75.73c1.74,0,3-.91,3-3.26v-1h0a3.33,3.33,0,0,1-3,1.57c-2.32,0-4-2-4-4.56,0-3.17,2.06-5,4.21-5a3.11,3.11,0,0,1,2.92,1.63h0l.08-1.41Zm-1.76,3.69a2.74,2.74,0,0,0-.09-.78,2.46,2.46,0,0,0-2.38-1.79c-1.62,0-2.78,1.37-2.78,3.53,0,1.84.92,3.37,2.76,3.37A2.5,2.5,0,0,0,146.22,23a3.18,3.18,0,0,0,.13-.91Z"/><path class="cls-1" d="M158.92,16.7c0,.67-.08,1.43-.08,2.57v5.42c0,2.15-.42,3.46-1.33,4.28a5,5,0,0,1-3.4,1.12,5.93,5.93,0,0,1-3.11-.78l.42-1.29a5.35,5.35,0,0,0,2.74.73c1.74,0,3-.91,3-3.26v-1h0a3.35,3.35,0,0,1-3,1.57c-2.31,0-4-2-4-4.56,0-3.17,2.07-5,4.22-5a3.09,3.09,0,0,1,2.91,1.63h0l.08-1.41Zm-1.76,3.69a2.42,2.42,0,0,0-.1-.78,2.45,2.45,0,0,0-2.37-1.79c-1.63,0-2.79,1.37-2.79,3.53,0,1.84.93,3.37,2.77,3.37A2.48,2.48,0,0,0,157,23a2.88,2.88,0,0,0,.14-.91Z"/></g></g></svg>