<?xml version="1.0" encoding="utf-8"?>
<!-- Generator: Adobe Illustrator 13.0.0, SVG Export Plug-In . SVG Version: 6.00 Build 14948)  -->
<!DOCTYPE svg PUBLIC "-//W3C//DTD SVG 1.1//EN" "http://www.w3.org/Graphics/SVG/1.1/DTD/svg11.dtd">
<svg version="1.1" id="Слой_1" xmlns="http://www.w3.org/2000/svg" xmlns:xlink="http://www.w3.org/1999/xlink" x="0px" y="0px"
	 width="424.01px" height="108.944px" viewBox="0 0 424.01 108.944" enable-background="new 0 0 424.01 108.944"
	 xml:space="preserve">
<g>
	<path d="M98.463,34.133v18.938c0,5.156,1.487,7.24,6.842,7.24c3.173,0,5.75-0.597,8.13-1.389l2.479,11.7
		c-3.767,1.588-9.816,2.579-15.271,2.579c-11.203,0-17.451-3.372-17.451-18.543V34.133V21.044V3.484h15.271v17.56h15.865v13.089
		H98.463z"/>
	<path d="M150.842,21.044h15.072v47.693c-6.446,2.282-16.659,4.563-25.682,4.563c-14.08,0-20.824-5.949-20.824-24.095v-28.16h15.074
		v26.97c0,9.123,1.585,11.7,9.023,11.7c2.479,0,4.66-0.396,7.337-0.991V21.044z"/>
	<path d="M172.667,21.044h15.27v3.966c1.685-2.975,4.959-5.355,12.296-5.355c1.487,0,3.272,0.1,5.055,0.299v14.179
		c-1.982-0.596-4.66-0.794-7.139-0.794c-5.453,0-10.212,1.786-10.212,5.157v33.316h-15.27V21.044z"/>
	<path d="M210.013,3.484h15.271v19.047c2.876-1.487,7.734-2.876,12.594-2.876c13.188,0,20.029,5.85,20.029,26.278
		c0,20.821-7.634,27.268-24.889,27.268c-7.932,0-17.551-1.486-23.005-3.57V3.484z M225.284,59.714
		c2.381,0.894,5.455,1.291,7.734,1.291c7.24,0,9.618-1.786,9.618-14.775c0-10.71-2.18-13.486-9.22-13.486
		c-4.563,0-8.133,1.389-8.133,3.571V59.714z"/>
	<path d="M261.672,46.131c0-20.724,8.428-26.475,24.59-26.475c16.461,0,24.79,5.751,24.79,26.475c0,20.822-8.23,27.07-24.79,27.07
		C269.901,73.201,261.672,66.953,261.672,46.131 M277.042,46.428c0,12.791,2.082,14.874,9.221,14.874
		c7.239,0,9.322-2.083,9.322-14.874c0-13.286-2.083-14.874-9.322-14.874C279.124,31.554,277.042,33.142,277.042,46.428"/>
	<path fill="#F8641C" d="M315.442,3.484h15.27v19.047c2.876-1.487,7.734-2.876,12.594-2.876c13.188,0,20.029,5.85,20.029,26.278
		c0,20.821-7.635,27.268-24.889,27.268c-7.932,0-17.551-1.486-23.004-3.57V3.484z M330.711,59.714
		c2.38,0.894,5.455,1.291,7.734,1.291c7.24,0,9.617-1.786,9.617-14.775c0-10.71-2.18-13.486-9.22-13.486
		c-4.562,0-8.132,1.389-8.132,3.571V59.714z"/>
	<path fill="#F8641C" d="M384.618,7.238c0,6.843-2.18,8.031-8.627,8.031c-6.545,0-8.626-1.188-8.626-8.031
		c0-6.246,2.081-7.238,8.626-7.238C382.438,0,384.618,0.992,384.618,7.238 M383.625,71.813h-15.271V21.044h15.271V71.813z"/>
	<path fill="#F8641C" d="M405.42,34.133v18.938c0,5.156,1.487,7.24,6.842,7.24c3.174,0,5.75-0.597,8.131-1.389l2.479,11.7
		c-3.768,1.588-9.816,2.579-15.271,2.579c-11.203,0-17.45-3.372-17.45-18.543V34.133V21.044V3.484h15.271v17.56h15.865v13.089
		H405.42z"/>
	<path fill="#828282" d="M95.11,103.771h-1.294c-0.284,0-0.492-0.234-0.492-0.522v-0.488c-1.423,0.803-2.587,1.192-4.112,1.192
		c-3.107,0-4.503-1.941-4.503-5.381v-8.511c0-0.284,0.233-0.52,0.518-0.52h1.241c0.285,0,0.517,0.235,0.517,0.52v8.511
		c0,2.611,0.88,3.413,2.846,3.413c1.088,0,2.302-0.412,3.493-1.011V90.062c0-0.261,0.232-0.52,0.518-0.52h1.268
		c0.257,0,0.49,0.235,0.49,0.52v13.188C95.6,103.537,95.395,103.771,95.11,103.771"/>
	<path fill="#828282" d="M109.494,103.771h-1.241c-0.288,0-0.518-0.234-0.518-0.522v-8.511c0-2.611-0.88-3.409-2.848-3.409
		c-1.086,0-2.301,0.416-3.491,1.011v10.909c0,0.266-0.233,0.522-0.518,0.522h-1.266c-0.26,0-0.492-0.234-0.492-0.522V90.062
		c0-0.284,0.206-0.52,0.492-0.52h1.292c0.286,0,0.492,0.235,0.492,0.52v0.488c1.423-0.803,2.587-1.185,4.112-1.185
		c3.107,0,4.503,1.938,4.503,5.373v8.511C110.011,103.537,109.778,103.771,109.494,103.771"/>
	<path fill="#828282" d="M115.598,103.771h-1.345c-0.259,0-0.466-0.234-0.466-0.522v-18.44c0-0.261,0.182-0.491,0.466-0.491h1.345
		c0.259,0,0.465,0.208,0.465,0.491v18.44C116.063,103.515,115.884,103.771,115.598,103.771"/>
	<path fill="#828282" d="M121.937,87.269h-1.321c-0.284,0-0.516-0.234-0.516-0.522v-2.069c0-0.284,0.232-0.515,0.516-0.515h1.321
		c0.284,0,0.516,0.23,0.516,0.515v2.069C122.452,87.034,122.22,87.269,121.937,87.269 M121.883,103.771h-1.241
		c-0.284,0-0.517-0.234-0.517-0.522V90.062c0-0.284,0.233-0.52,0.517-0.52h1.241c0.284,0,0.519,0.235,0.519,0.52v13.188
		C122.402,103.537,122.167,103.771,121.883,103.771"/>
	<path fill="#828282" d="M142.839,103.771h-1.241c-0.286,0-0.519-0.234-0.519-0.522v-9.153c0-2.173-1.011-2.767-2.354-2.767
		c-0.931,0-2.017,0.307-3.026,0.696c0.152,0.567,0.232,1.241,0.232,2.017v9.207c0,0.266-0.18,0.522-0.466,0.522h-1.372
		c-0.259,0-0.439-0.234-0.439-0.522v-9.207c0-2.247-0.647-2.713-1.99-2.713c-0.931,0-2.07,0.466-3.157,1.011v10.909
		c0,0.266-0.181,0.522-0.467,0.522h-1.371c-0.26,0-0.439-0.234-0.439-0.522V90.062c0-0.284,0.208-0.52,0.489-0.52h1.297
		c0.281,0,0.491,0.235,0.491,0.52v0.488c1.034-0.647,2.353-1.216,3.775-1.216c1.113,0,1.942,0.312,2.589,1.061
		c1.423-0.67,2.949-1.061,4.293-1.061c2.329,0,4.193,1.166,4.193,4.762v9.153C143.357,103.537,143.122,103.771,142.839,103.771"/>
	<path fill="#828282" d="M148.971,87.269h-1.321c-0.286,0-0.52-0.234-0.52-0.522v-2.069c0-0.284,0.234-0.515,0.52-0.515h1.321
		c0.282,0,0.516,0.23,0.516,0.515v2.069C149.487,87.034,149.253,87.269,148.971,87.269 M148.918,103.771h-1.243
		c-0.284,0-0.517-0.234-0.517-0.522V90.062c0-0.284,0.233-0.52,0.517-0.52h1.243c0.281,0,0.517,0.235,0.517,0.52v13.188
		C149.435,103.537,149.199,103.771,148.918,103.771"/>
	<path fill="#828282" d="M160.35,103.824c-0.517,0.076-1.187,0.129-1.678,0.129c-2.383,0-3.519-0.62-3.519-3.466v-9.029
		l-2.511-0.288c-0.286-0.022-0.49-0.182-0.49-0.465v-0.696c0-0.284,0.204-0.466,0.49-0.466h2.511v-2.539
		c0-0.258,0.179-0.462,0.465-0.515l1.345-0.204h0.077c0.206,0,0.389,0.178,0.389,0.438v2.819h2.792c0.286,0,0.519,0.234,0.519,0.519
		v0.878c0,0.281-0.233,0.519-0.519,0.519h-2.792v9.029c0,1.423,0.361,1.627,1.395,1.627h1.451c0.361,0,0.543,0.102,0.543,0.359
		v0.908C160.817,103.612,160.688,103.771,160.35,103.824"/>
	<path fill="#828282" d="M173.699,97.38h-8.666v0.363c0,3.077,1.216,4.216,3.597,4.216c1.5,0,3.413-0.103,4.604-0.284h0.13
		c0.207,0,0.415,0.103,0.415,0.363v0.878c0,0.333-0.107,0.515-0.519,0.599c-1.474,0.279-2.899,0.438-4.63,0.438
		c-2.974,0-5.871-1.4-5.871-6.21v-2.327c0-3.701,2.041-6.051,5.74-6.051c3.779,0,5.692,2.38,5.692,6.051v1.396
		C174.19,97.149,174.009,97.38,173.699,97.38 M171.89,95.416c0-2.925-1.112-4.064-3.391-4.064c-2.225,0-3.466,1.271-3.466,4.064
		v0.23h6.857V95.416z"/>
	<path fill="#828282" d="M187.228,103.514c-1.602,0.311-3.18,0.439-4.757,0.439c-3.857,0-5.641-2.509-5.641-6.392v-1.865
		c0-4.061,1.861-6.331,5.641-6.331c0.797,0,2.016,0.072,3.025,0.254v-4.811c0-0.261,0.206-0.491,0.491-0.491h1.32
		c0.258,0,0.466,0.208,0.466,0.491v18.107C187.773,103.249,187.696,103.43,187.228,103.514 M185.496,91.533
		c-0.854-0.151-2.199-0.182-3.025-0.182c-2.538,0-3.365,1.582-3.365,4.345v1.865c0,2.819,0.802,4.397,3.365,4.397
		c0.878,0,2.147-0.079,3.025-0.155V91.533z"/>
	<path fill="#828282" d="M212.219,103.771h-1.786c-0.232,0-0.308-0.079-0.414-0.178l-1.292-1.4c-1.268,1.086-2.976,1.76-5.097,1.76
		c-3.154,0-6.338-1.219-6.338-4.737v-0.205c0-2.146,1.113-3.443,3.727-5.097l-0.184-0.208c-2.43-2.789-2.69-3.879-2.69-5.019v-0.208
		c0-2.739,2.096-4.109,5.433-4.109c2.872,0,5.149,1.37,5.149,4.109v0.208c0,1.737-0.699,2.926-3.958,5.124l-0.725,0.492l4.683,5.044
		c0.698-1.241,1.008-2.846,1.008-4.552v-0.363c0-0.288,0.129-0.413,0.415-0.413h1.111c0.287,0,0.441,0.125,0.441,0.413v0.363
		c0,2.251-0.545,4.34-1.631,5.944l2.304,2.46c0.103,0.103,0.129,0.212,0.129,0.287C212.504,103.668,212.348,103.771,212.219,103.771
		 M202.335,95.337c-2.068,1.294-2.664,2.096-2.664,3.674v0.205c0,2.1,1.863,2.951,3.959,2.951c1.654,0,2.923-0.519,3.855-1.316
		L202.335,95.337z M206.581,88.479c0-1.706-1.219-2.376-3.003-2.376c-1.966,0-3.311,0.594-3.311,2.376v0.208
		c0,0.908,0.128,1.604,2.199,3.883l0.258,0.284l0.878-0.545c2.51-1.552,2.979-2.199,2.979-3.622V88.479z"/>
	<path fill="#828282" d="M228.595,85.896h-1.239c-1.219,0-1.578,0.363-1.578,1.786v1.861h2.714c0.285,0,0.491,0.205,0.491,0.466
		v1.01c0,0.258-0.206,0.439-0.491,0.439h-2.714v11.792c0,0.265-0.234,0.521-0.492,0.521h-1.271c-0.281,0-0.517-0.257-0.517-0.521
		V91.458l-2.506-0.288c-0.286-0.022-0.493-0.204-0.493-0.465v-0.696c0-0.261,0.207-0.466,0.493-0.466h2.506v-1.861
		c0-2.774,1.347-3.599,3.624-3.599c0.697,0,1.111,0.079,1.447,0.158c0.285,0.076,0.492,0.178,0.492,0.413v0.851
		C229.061,85.793,228.881,85.896,228.595,85.896"/>
	<path fill="#828282" d="M240.858,103.771h-1.19c-0.284,0-0.517-0.234-0.517-0.522v-0.563c-1.243,0.727-2.535,1.268-3.984,1.268
		c-2.199,0-4.216-0.957-4.216-4.192V99.45c0-2.793,1.626-4.193,6.232-4.193h1.915v-1.033c0-2.176-0.752-2.921-2.768-2.921
		c-1.683,0-2.922,0.103-3.959,0.204h-0.129c-0.232,0-0.465-0.075-0.465-0.412V90.19c0-0.288,0.182-0.443,0.543-0.492
		c1.059-0.182,2.25-0.333,4.01-0.333c3.594,0,5.043,1.805,5.043,4.858v9.025C241.374,103.537,241.141,103.771,240.858,103.771
		 M239.098,96.888h-1.915c-3.128,0-3.956,0.7-3.956,2.54v0.306c0,1.862,0.879,2.358,2.38,2.358c1.19,0,2.248-0.363,3.491-1.037
		V96.888z"/>
	<path fill="#828282" d="M249.058,103.953c-0.958,0-2.819-0.079-4.089-0.39c-0.335-0.076-0.541-0.23-0.541-0.515v-0.907
		c0-0.231,0.206-0.387,0.463-0.387h0.106c1.241,0.155,3.13,0.283,4.061,0.283c1.683,0,2.563-0.442,2.563-1.839
		c0-0.771-0.466-1.264-1.942-2.142l-2.613-1.556c-1.577-0.957-2.637-2.069-2.637-3.701c0-2.69,2.017-3.436,4.681-3.436
		c1.45,0,2.821,0.125,4.036,0.333c0.337,0.049,0.492,0.23,0.492,0.515v0.855c0,0.313-0.182,0.438-0.439,0.438h-0.077
		c-0.907-0.074-2.562-0.204-4.012-0.204c-1.447,0-2.404,0.178-2.404,1.498c0,0.78,0.594,1.269,1.784,1.968l2.562,1.525
		c2.147,1.268,2.846,2.38,2.846,3.905C253.896,102.837,251.955,103.953,249.058,103.953"/>
	<path fill="#828282" d="M264.036,103.824c-0.517,0.076-1.191,0.129-1.682,0.129c-2.38,0-3.518-0.62-3.518-3.466v-9.029
		l-2.509-0.288c-0.288-0.022-0.492-0.182-0.492-0.465v-0.696c0-0.284,0.204-0.466,0.492-0.466h2.509v-2.539
		c0-0.258,0.182-0.462,0.465-0.515l1.344-0.204h0.079c0.206,0,0.388,0.178,0.388,0.438v2.819h2.793c0.286,0,0.52,0.234,0.52,0.519
		v0.878c0,0.281-0.233,0.519-0.52,0.519h-2.793v9.029c0,1.423,0.361,1.627,1.396,1.627h1.449c0.362,0,0.544,0.102,0.544,0.359v0.908
		C264.501,103.612,264.373,103.771,264.036,103.824"/>
	<path fill="#828282" d="M281.576,103.669c-0.854,0.155-2.017,0.284-3.233,0.284c-3.518,0-5.51-2.486-5.51-6.289v-2.018
		c0-3.803,1.965-6.281,5.51-6.281c1.189,0,2.38,0.125,3.233,0.28c0.412,0.079,0.52,0.208,0.52,0.567v0.936
		c0,0.257-0.207,0.385-0.442,0.385h-0.104c-1.137-0.128-1.938-0.182-3.207-0.182c-2.068,0-3.234,1.37-3.234,4.295v2.018
		c0,2.898,1.14,4.295,3.234,4.295c1.27,0,2.07-0.049,3.207-0.182h0.104c0.235,0,0.442,0.133,0.442,0.39v0.931
		C282.095,103.431,281.988,103.594,281.576,103.669"/>
	<path fill="#828282" d="M287.059,103.771h-1.346c-0.258,0-0.465-0.234-0.465-0.522v-18.44c0-0.261,0.184-0.491,0.465-0.491h1.346
		c0.259,0,0.467,0.208,0.467,0.491v18.44C287.526,103.515,287.344,103.771,287.059,103.771"/>
	<path fill="#828282" d="M296.58,103.953c-3.803,0-5.742-2.508-5.742-6.315v-1.964c0-3.804,1.939-6.309,5.742-6.309
		c3.802,0,5.769,2.505,5.769,6.309v1.964C302.348,101.445,300.381,103.953,296.58,103.953 M300.073,95.674
		c0-2.638-1.063-4.322-3.493-4.322c-2.407,0-3.466,1.654-3.466,4.322v1.964c0,2.638,1.033,4.321,3.466,4.321
		c2.405,0,3.493-1.653,3.493-4.321V95.674z"/>
	<path fill="#828282" d="M315.799,103.771h-1.292c-0.286,0-0.491-0.234-0.491-0.522v-0.488c-1.426,0.803-2.587,1.192-4.112,1.192
		c-3.106,0-4.503-1.941-4.503-5.381v-8.511c0-0.284,0.232-0.52,0.515-0.52h1.245c0.283,0,0.516,0.235,0.516,0.52v8.511
		c0,2.611,0.879,3.413,2.845,3.413c1.088,0,2.304-0.412,3.495-1.011V90.062c0-0.261,0.232-0.52,0.516-0.52h1.268
		c0.26,0,0.492,0.235,0.492,0.52v13.188C316.292,103.537,316.085,103.771,315.799,103.771"/>
	<path fill="#828282" d="M329.745,103.514c-1.604,0.311-3.183,0.439-4.761,0.439c-3.854,0-5.638-2.509-5.638-6.392v-1.865
		c0-4.061,1.859-6.331,5.638-6.331c0.802,0,2.017,0.072,3.025,0.254v-4.811c0-0.261,0.21-0.491,0.492-0.491h1.32
		c0.257,0,0.466,0.208,0.466,0.491v18.107C330.288,103.249,330.209,103.43,329.745,103.514 M328.009,91.533
		c-0.852-0.151-2.198-0.182-3.025-0.182c-2.535,0-3.362,1.582-3.362,4.345v1.865c0,2.819,0.801,4.397,3.362,4.397
		c0.879,0,2.147-0.079,3.025-0.155V91.533z"/>
	<path fill="#828282" d="M344.361,103.953c-0.958,0-2.823-0.079-4.089-0.39c-0.335-0.076-0.543-0.23-0.543-0.515v-0.907
		c0-0.231,0.208-0.387,0.465-0.387h0.104c1.239,0.155,3.13,0.283,4.063,0.283c1.683,0,2.56-0.442,2.56-1.839
		c0-0.771-0.465-1.264-1.939-2.142l-2.614-1.556c-1.578-0.957-2.638-2.069-2.638-3.701c0-2.69,2.018-3.436,4.684-3.436
		c1.449,0,2.818,0.125,4.035,0.333c0.335,0.049,0.492,0.23,0.492,0.515v0.855c0,0.313-0.183,0.438-0.439,0.438h-0.079
		c-0.904-0.074-2.56-0.204-4.009-0.204c-1.448,0-2.407,0.178-2.407,1.498c0,0.78,0.594,1.269,1.786,1.968l2.562,1.525
		c2.147,1.268,2.845,2.38,2.845,3.905C349.198,102.837,347.257,103.953,344.361,103.953"/>
	<path fill="#828282" d="M359.336,103.824c-0.514,0.076-1.189,0.129-1.68,0.129c-2.381,0-3.52-0.62-3.52-3.466v-9.029l-2.509-0.288
		c-0.286-0.022-0.492-0.182-0.492-0.465v-0.696c0-0.284,0.206-0.466,0.492-0.466h2.509v-2.539c0-0.258,0.182-0.462,0.467-0.515
		l1.344-0.204h0.078c0.208,0,0.388,0.178,0.388,0.438v2.819h2.794c0.284,0,0.52,0.234,0.52,0.519v0.878
		c0,0.281-0.235,0.519-0.52,0.519h-2.794v9.029c0,1.423,0.363,1.627,1.397,1.627h1.45c0.359,0,0.541,0.102,0.541,0.359v0.908
		C359.802,103.612,359.673,103.771,359.336,103.824"/>
	<path fill="#828282" d="M367.486,103.953c-3.803,0-5.742-2.508-5.742-6.315v-1.964c0-3.804,1.939-6.309,5.742-6.309
		c3.804,0,5.769,2.505,5.769,6.309v1.964C373.254,101.445,371.29,103.953,367.486,103.953 M370.979,95.674
		c0-2.638-1.062-4.322-3.493-4.322c-2.407,0-3.468,1.654-3.468,4.322v1.964c0,2.638,1.037,4.321,3.468,4.321
		c2.405,0,3.493-1.653,3.493-4.321V95.674z"/>
	<path fill="#828282" d="M382.155,91.329c-1.191,0-2.277,0.307-3.57,1.086v10.834c0,0.266-0.232,0.522-0.516,0.522H376.8
		c-0.259,0-0.493-0.234-0.493-0.522V90.062c0-0.284,0.21-0.519,0.493-0.519h1.216c0.284,0,0.491,0.234,0.491,0.519v0.541
		c1.293-0.904,2.484-1.237,3.647-1.237c0.361,0,0.543,0.151,0.543,0.462v1.06C382.698,91.17,382.516,91.329,382.155,91.329"/>
	<path fill="#828282" d="M394.545,103.771h-1.191c-0.285,0-0.516-0.234-0.516-0.522v-0.563c-1.243,0.727-2.535,1.268-3.984,1.268
		c-2.199,0-4.217-0.957-4.217-4.192V99.45c0-2.793,1.632-4.193,6.234-4.193h1.914v-1.033c0-2.176-0.752-2.921-2.769-2.921
		c-1.681,0-2.921,0.103-3.958,0.204h-0.129c-0.232,0-0.465-0.075-0.465-0.412V90.19c0-0.288,0.182-0.443,0.543-0.492
		c1.059-0.182,2.251-0.333,4.009-0.333c3.595,0,5.044,1.805,5.044,4.858v9.025C395.061,103.537,394.829,103.771,394.545,103.771
		 M392.786,96.888h-1.914c-3.129,0-3.957,0.7-3.957,2.54v0.306c0,1.862,0.879,2.358,2.378,2.358c1.192,0,2.249-0.363,3.493-1.037
		V96.888z"/>
	<path fill="#828282" d="M409.885,91.276l-0.93,0.182c0.463,0.488,0.877,1.265,0.877,2.66v0.208c0,2.846-1.758,4.428-5.74,4.428
		c-1.373,0-2.252-0.208-3.003-0.519c-0.438,0.204-0.646,0.488-0.646,0.882c0,0.438,0.207,0.67,0.799,0.825l3.857,0.983
		c2.536,0.647,4.967,1.366,4.967,3.803v0.205c0,2.482-1.656,4.011-5.896,4.011c-4.09,0-5.953-1.578-5.953-4.113v-0.23
		c0-1.449,0.777-2.642,1.631-3.285l-0.184-0.083c-0.826-0.359-1.188-1.211-1.188-2.017v-0.023c0-0.7,0.336-1.449,1.061-1.861
		c-0.804-0.753-1.191-1.685-1.191-3.005v-0.208c0-2.297,1.294-4.575,5.746-4.575h5.665c0.31,0,0.593,0.258,0.593,0.567v0.674
		C410.35,91.121,410.17,91.22,409.885,91.276 M407.79,104.729c0-1.014-0.827-1.426-3.156-2.021l-2.924-0.749
		c-0.748,0.647-1.266,1.29-1.266,2.642v0.23c0,1.445,0.852,2.354,3.727,2.354c2.947,0,3.619-0.828,3.619-2.251V104.729z
		 M407.583,94.118c0-1.548-0.697-2.767-3.49-2.767c-2.898,0-3.492,1.321-3.492,2.767v0.208c0,1.139,0.514,2.642,3.492,2.642
		c2.793,0,3.49-1.09,3.49-2.642V94.118z"/>
	<path fill="#828282" d="M423.518,97.38h-8.665v0.363c0,3.077,1.216,4.216,3.597,4.216c1.498,0,3.415-0.103,4.604-0.284h0.131
		c0.205,0,0.412,0.103,0.412,0.363v0.878c0,0.333-0.101,0.515-0.519,0.599c-1.472,0.279-2.896,0.438-4.628,0.438
		c-2.977,0-5.873-1.4-5.873-6.21v-2.327c0-3.701,2.043-6.051,5.744-6.051c3.777,0,5.689,2.38,5.689,6.051v1.396
		C424.01,97.149,423.831,97.38,423.518,97.38 M421.708,95.416c0-2.925-1.112-4.064-3.387-4.064c-2.227,0-3.468,1.271-3.468,4.064
		v0.23h6.854V95.416z"/>
	<path fill="#F8641C" d="M55.151,3.262H14.173C6.346,3.262,0,9.608,0,17.436v41.592c0,7.828,6.346,14.173,14.173,14.173h40.978
		c7.828,0,14.174-6.346,14.174-14.173V17.436C69.325,9.608,62.979,3.262,55.151,3.262 M54.77,61.891
		c-0.744,1.274-2.083,1.982-3.458,1.982c-0.685,0-1.379-0.175-2.014-0.545l-15.119-8.831l-14.147,8.299
		c-1.907,1.118-4.356,0.48-5.474-1.425c-1.118-1.906-0.48-4.357,1.425-5.475L34.17,45.225L53.333,56.42
		C55.241,57.534,55.884,59.983,54.77,61.891 M54.77,45.028c-0.744,1.273-2.083,1.982-3.458,1.982c-0.685,0-1.379-0.175-2.014-0.546
		l-15.119-8.831l-14.147,8.301c-1.907,1.119-4.356,0.48-5.474-1.426c-1.118-1.905-0.48-4.356,1.425-5.474L34.17,28.362
		l19.163,11.194C55.241,40.671,55.884,43.12,54.77,45.028 M54.77,28.692c-0.744,1.272-2.083,1.982-3.458,1.982
		c-0.685,0-1.379-0.175-2.014-0.546l-15.119-8.832l-14.147,8.3c-1.907,1.119-4.356,0.481-5.474-1.425
		c-1.118-1.905-0.48-4.356,1.425-5.473L34.17,12.026l19.163,11.193C55.241,24.335,55.884,26.784,54.77,28.692"/>
</g>
</svg>
